<svg xmlns="http://www.w3.org/2000/svg" xmlns:xlink="http://www.w3.org/1999/xlink" width="88" height="30" viewBox="0 0 88 30">
    <defs>
        <linearGradient id="y1fy5iddab" x1="100%" x2="0%" y1="50%" y2="50%">
            <stop offset="0%" stop-color="#131415"/>
            <stop offset="58.935%" stop-color="#131415"/>
            <stop offset="100%" stop-color="#FFF"/>
        </linearGradient>
        <linearGradient id="r9uhnqen1d" x1="79.907%" x2="14.191%" y1="99.912%" y2="9.958%">
            <stop offset="0%" stop-color="#131415"/>
            <stop offset="63.799%" stop-color="#131415"/>
            <stop offset="100%" stop-color="#FFF"/>
        </linearGradient>
        <linearGradient id="i1ti3850de" x1="100%" x2="0%" y1="50%" y2="50%">
            <stop offset="0%" stop-color="#131415"/>
            <stop offset="58.935%" stop-color="#131415"/>
            <stop offset="100%" stop-color="#FFF"/>
        </linearGradient>
        <path id="aw5wsjjz0a" d="M20.544 23.108V17.73l3.135-2.722 6.132 8.099h3.962l-3.641-4.723-4.145-5.375 7.924-6.823h-4.789l-8.578 7.581V0h-3.239v23.108h3.239zm22.728.482c2.044 0 3.646-.43 4.806-1.292 1.16-.862 2.108-1.913 2.843-3.154l-2.688-1.516c-.482.942-1.114 1.7-1.895 2.275-.78.574-1.803.861-3.066.861-1.516 0-2.768-.465-3.755-1.396-.988-.93-1.539-2.13-1.654-3.6h13.333v-1.586c0-1.7-.344-3.194-1.033-4.48-.69-1.287-1.648-2.275-2.877-2.964-1.229-.69-2.647-1.034-4.255-1.034-1.63 0-3.09.374-4.375 1.12-1.287.747-2.292 1.792-3.015 3.136-.724 1.344-1.085 2.866-1.085 4.567 0 1.723.361 3.273 1.085 4.652.723 1.378 1.746 2.458 3.066 3.24 1.32.78 2.843 1.171 4.565 1.171zm-5.374-10.442c.183-1.424.723-2.55 1.619-3.377s2.067-1.24 3.514-1.24c1.401 0 2.538.407 3.41 1.223.874.815 1.356 1.947 1.448 3.394h-9.991zM56.976 30v-9.477c1.263 2.045 3.617 3.067 6.374 3.067 1.447 0 2.767-.368 3.962-1.103 1.194-.735 2.147-1.78 2.86-3.136.711-1.355 1.067-2.918 1.067-4.687 0-1.769-.356-3.337-1.068-4.704-.712-1.367-1.665-2.418-2.86-3.153-1.194-.735-2.514-1.103-3.961-1.103-2.757 0-4.79 1.069-6.098 3.205h-.345V6.187h-3.17V30h3.239zm5.512-9.236c-1.653 0-2.991-.551-4.013-1.654-1.022-1.103-1.5-2.585-1.5-4.446 0-1.884.478-3.377 1.5-4.48 1.022-1.102 2.36-1.654 4.013-1.654 1.631 0 2.952.546 3.962 1.637 1.01 1.091 1.516 2.59 1.516 4.497 0 1.884-.505 3.372-1.516 4.463-1.01 1.092-2.331 1.637-3.962 1.637zm17.887 2.826c2.113 0 3.796-.47 5.047-1.413 1.252-.942 1.878-2.251 1.878-3.929 0-1.562-.534-2.705-1.602-3.429-1.068-.723-2.636-1.269-4.703-1.637l-1.447-.206c-1.056-.184-1.854-.466-2.394-.845-.54-.379-.81-.913-.81-1.602 0-.712.299-1.27.896-1.671.597-.403 1.412-.604 2.446-.604 2.25 0 3.595 1.046 4.031 3.136l2.963-.861c-.368-1.493-1.16-2.67-2.377-3.532-1.218-.862-2.757-1.293-4.617-1.293-1.998 0-3.583.442-4.754 1.327-1.172.885-1.757 2.108-1.757 3.67 0 1.448.522 2.562 1.567 3.343 1.045.781 2.486 1.333 4.324 1.654l1.447.241c1.24.207 2.159.5 2.756.88.597.378.896.924.896 1.636 0 .781-.339 1.407-1.016 1.878-.678.471-1.603.707-2.774.707-2.802 0-4.433-1.367-4.892-4.101l-3.032.758c.299 1.93 1.148 3.395 2.55 4.394 1.4 1 3.192 1.5 5.374 1.5zm-72.451 0c2.113 0 3.796-.47 5.047-1.413 1.252-.942 1.878-2.251 1.878-3.929 0-1.562-.534-2.705-1.602-3.429-1.068-.723-2.636-1.269-4.703-1.637l-1.447-.206c-1.056-.184-1.855-.466-2.394-.845-.54-.379-.81-.913-.81-1.602 0-.712.299-1.27.896-1.671.597-.403 1.412-.604 2.446-.604 2.25 0 3.594 1.046 4.03 3.136l2.964-.861c-.368-1.493-1.16-2.67-2.377-3.532-1.218-.862-2.757-1.293-4.617-1.293-1.998 0-3.583.442-4.754 1.327-1.172.885-1.758 2.108-1.758 3.67 0 1.448.523 2.562 1.568 3.343 1.045.781 2.486 1.333 4.324 1.654l1.447.241c1.24.207 2.159.5 2.756.88.597.378.896.924.896 1.636 0 .781-.339 1.407-1.017 1.878-.677.471-1.602.707-2.773.707-2.802 0-4.433-1.367-4.892-4.101L0 17.697c.299 1.93 1.148 3.395 2.55 4.394 1.4 1 3.192 1.5 5.374 1.5z"/>
    </defs>
    <g fill="none" fill-rule="evenodd">
        <g>
            <g>
                <g transform="translate(-186 -46) translate(186 38) translate(0 8)">
                    <mask id="em8n6td0jc" fill="#fff">
                        <use xlink:href="#aw5wsjjz0a"/>
                    </mask>
                    <use fill="#131415" fill-rule="nonzero" xlink:href="#aw5wsjjz0a"/>
                    <path fill="url(#y1fy5iddab)" d="M56.976 14.647L62.611 13.148 71.318 13.148 71.318 26.148 58.175 26.148 56.976 20.572 56.976 14.664z" mask="url(#em8n6td0jc)"/>
                    <path fill="url(#r9uhnqen1d)" d="M23.677 15.025L25.999 13.02 33.773 23.108 29.811 23.108z" mask="url(#em8n6td0jc)"/>
                    <path fill="url(#i1ti3850de)" d="M37.898 13.148L51.196 13.148 51.196 15.767 37.863 15.767z" mask="url(#em8n6td0jc)"/>
                </g>
            </g>
        </g>
    </g>
</svg>
